<svg width="1440" height="2751" viewBox="0 0 1440 2751" fill="none" xmlns="http://www.w3.org/2000/svg">
<path d="M1075.86 -2364.42L-860 895.62L1616.38 2750.26L3552 -511.482L1075.86 -2364.42ZM3283.98 -658.057C3265.33 -656.44 3244.26 -660.302 3225.93 -658.057C3153.38 -649.255 3084.19 -607.492 3031.74 -552.527L2699.34 6.55981L2471.76 -170.013L2919.63 -925.521L3283.98 -658.057ZM2136.88 -312.277C2077.7 -312.277 1974.72 -246.174 1936.61 -195.61L1608.37 351.892L1382.72 179.54L1831.07 -581.177L2194.94 -312.277H2136.88ZM2224.56 -266.921C2299.36 -252.102 2346.6 -196.238 2409.46 -155.193L1958.79 610.913L1642.89 378.745L1644.49 365.992L1957.03 -159.235C2022.29 -243.21 2125.83 -286.5 2224.56 -266.921ZM1340.11 154.303L1026.21 -89.2705L1342.2 -619.797C1383.36 -676.02 1456.71 -720.926 1521.41 -728.65C1628.63 -741.493 1700.7 -693.713 1782.22 -624.108C1786.62 -620.336 1794.55 -614.228 1793.99 -607.223L1340.11 154.303ZM1516.76 -769.785C1439.41 -758.558 1369.42 -716.615 1318.01 -651.411L997.385 -110.556L769.806 -279.225L1219.92 -1043.98L1582.35 -770.323C1560.89 -776.251 1538.71 -772.928 1516.76 -769.785ZM731.209 -303.385L413.624 -543.545L727.846 -1070.84C793.509 -1160.29 900.492 -1204.3 1002.75 -1182.3C1074.58 -1166.85 1123.67 -1108.2 1185.97 -1071.11L731.209 -303.385ZM699.979 -249.138L248.986 514.004L-71.2419 273.844L245.783 -259.826C377.589 -420.322 551.116 -394.815 690.77 -262.071C694.374 -258.658 701.821 -255.964 699.979 -249.138ZM735.854 -226.864L1093.88 42.4851C1024.05 40.1499 954.864 58.9209 896.488 101.762C854.208 132.657 833.147 164.721 804.72 209.897C705.985 366.621 619.422 537.625 517.884 692.104C515.082 696.325 513.72 701.893 513.24 707.102L281.177 534.212L735.854 -226.864ZM546.071 719.137C654.415 559.18 741.939 360.603 851.965 204.508C917.308 111.821 1011 75.7158 1115.42 87.9304C1190.85 96.822 1246.58 157.446 1308.24 199.658L861.735 965.674L541.587 733.687L546.071 719.137ZM1350.04 233.069L1714.47 505.023C1693.09 506.729 1669.47 502.688 1648.41 505.023C1573.22 513.285 1488.9 567.532 1442.93 633.815L1127.51 1165.51L898.17 992.887L1350.04 233.069ZM1159.46 1183.02L1466.96 665.249C1594.36 503.226 1741.62 516.788 1890.32 633.365C1897.69 639.203 1927.32 660.399 1926.2 668.123L1477.69 1424.98L1460.87 1420.4C1378.15 1353.49 1290.07 1294.93 1206.31 1229.9C1197.82 1223.26 1165.31 1199.91 1161.62 1194.52C1158.82 1190.48 1156.98 1188.14 1159.46 1183.02ZM1961.03 689.229L2327.06 963.069C2222.88 947.711 2116.7 1000.88 2051.52 1091.86L1738.34 1623.11L1510.84 1456.41L1961.03 689.229ZM1998.83 641.898L1995.22 629.324L2443.25 -128.16L2807.52 145.77H2741.46C2682.52 145.77 2583.15 212.052 2545.19 262.438L2220.56 805.538L1998.83 641.898ZM2887.04 -958.302L2438.69 -191.568L2120.62 -424.543L2123.59 -439.452C2231.53 -597.972 2318.33 -796.908 2427.88 -951.387C2498.35 -1050.9 2608.29 -1093.47 2718.8 -1063.74C2783.58 -1046.32 2830.35 -993.778 2887.04 -958.302ZM2671.39 -1120.5V-1111.61C2651.85 -1120.24 2626.71 -1114.22 2605.89 -1110.98C2537.43 -1100.3 2478.33 -1066.26 2427 -1015.24C2308.57 -832.564 2200.7 -640.903 2090.52 -451.756L1860.29 -622.042L2310.97 -1383.66L2671.39 -1120.5ZM2275.01 -1416.89L1822.5 -649.076L1504.11 -886.991L1808.8 -1407.73C1878.79 -1511.1 1998.27 -1555.92 2110.77 -1522.42C2172.67 -1503.92 2218.88 -1448.86 2275.01 -1416.89ZM2058.81 -1574.15C2038.79 -1572.53 2016.44 -1576.4 1996.75 -1574.15C1930.84 -1566.52 1844.28 -1517.66 1800.48 -1461.97L1477.77 -921.389L1468.4 -913.845L1242.02 -1082.33L1697.02 -1843.05L2058.81 -1574.15ZM1662.18 -1874.67L1209.99 -1109.01L889.682 -1340.73L1208.31 -1879.16C1284.7 -1974.72 1399.13 -2012.8 1509.4 -1975.08C1566.33 -1955.59 1609.65 -1904.12 1662.18 -1874.67ZM1081.95 -2301.64L1446.22 -2036.6L1444.13 -2027.62C1425.08 -2034.08 1397.05 -2030.31 1376.63 -2027.17C1305.76 -2016.03 1238.9 -1975.97 1189.89 -1917.78L861.815 -1369.56L633.595 -1541.01L1081.95 -2301.64ZM605.328 -1495.83L617.26 -1495.56L969.758 -1228.37H907.699C846.92 -1228.37 745.703 -1160.65 707.426 -1107.21L383.275 -564.023L157.378 -740.416L605.328 -1495.83ZM121.023 -685.001L489.297 -415.472C490.338 -408.287 483.691 -410.802 479.367 -411.161C384.476 -417.537 295.19 -377.75 228.967 -301.14L-99.2689 247.169L-327.008 82.3621L121.023 -685.001ZM-807.95 882.148L-353.113 119.096L8.83496 383.865C9.87598 391.14 3.38983 388.086 -1.09448 388.265C-100.63 393.385 -183.75 421.137 -251.495 507.178L-577.649 1052.61L-807.95 882.148ZM-547.7 1079.74L-233.158 545.708C-168.776 459.487 -65.4764 415.928 33.819 434.34C106.769 447.812 166.026 505.921 224.642 552.175L-227.392 1311.36L-547.7 1079.74ZM31.0163 1506.62L-195.361 1338.13L257.154 572.382L621.424 846.312C601.484 848.019 578.903 843.888 559.364 846.312C488.576 854.935 405.296 901.997 359.092 962.98L40.3854 1499.07L31.0163 1506.62ZM65.3693 1527.46L377.91 1002.05C460.069 889.423 611.734 850.893 726.805 923.462C760.758 944.837 792.388 978.877 827.782 998.815L833.147 1013.81L385.117 1771.39L65.3693 1527.46ZM422.913 1798.42L873.586 1036.81L1234.01 1299.96C1235.05 1307.23 1228.57 1304.18 1224.08 1304.36C1127.43 1309.21 1045.03 1337.77 977.686 1418.78L649.531 1967.09L422.913 1798.42ZM683.323 1995.92L683.483 1982.63L986.415 1473.48C1054.56 1370.37 1170.59 1327.44 1282.22 1355.82C1346.04 1372.08 1392.24 1431.18 1449.98 1461.89L997.785 2227.55L683.323 1995.92ZM1034.38 2250.45L1480.01 1497.19L1488.26 1492.79L1846.6 1762.41C1826.58 1764.02 1804.24 1760.16 1784.54 1762.41C1736.74 1767.88 1672.19 1799.14 1633.04 1830.48C1561.69 1887.79 1452.38 2099.74 1398.09 2191.17C1351.81 2269.04 1306 2347.54 1261.96 2427.02L1034.38 2250.45ZM1610.29 2687.48L1291.59 2444.72L1607.09 1913.65C1691.65 1804.62 1840.28 1767.08 1954.38 1841.35C1988.1 1863.27 2020.69 1895.15 2054.8 1917.42L2058.24 1929.73L1610.29 2687.48ZM2086.83 1881.68L1766.52 1650.05L2081.15 1116.11C2147.29 1027.2 2238.26 992.528 2340.6 1004.02C2418.91 1012.83 2472.72 1077.4 2539.27 1115.84L2086.83 1881.68ZM2571.22 1070.85L2251.23 830.685L2569.62 294.321C2644.25 199.568 2764.28 161.578 2872.47 200.916C2929 221.483 2971.04 273.844 3023.73 303.033L2571.22 1070.85ZM2727.85 26.7676L3057.61 -523.517C3108.69 -576.237 3173 -611.893 3243.14 -616.294C3352.77 -623.21 3414.91 -562.855 3500.11 -498.639L3045.83 266.749L2727.85 26.7676Z" fill="url(#paint0_linear_322_195)" fill-opacity="0.42"/>
<defs>
<linearGradient id="paint0_linear_322_195" x1="1346" y1="-2364.42" x2="1346" y2="2750.26" gradientUnits="userSpaceOnUse">
<stop stop-color="#5BB507" stop-opacity="0.11"/>
<stop offset="0.585" stop-color="#5BB507" stop-opacity="0.22"/>
</linearGradient>
</defs>
</svg>
